<mxfile host="Electron" modified="2023-11-26T04:15:17.716Z" agent="Mozilla/5.0 (Windows NT 10.0; Win64; x64) AppleWebKit/537.36 (KHTML, like Gecko) draw.io/22.0.3 Chrome/114.0.5735.289 Electron/25.8.4 Safari/537.36" etag="XLU3b_lSfq336rsCilO4" version="22.0.3" type="device">
  <diagram name="Trang-1" id="bWNTFcElYCCQ8FOkIye0">
    <mxGraphModel dx="592" dy="346" grid="1" gridSize="10" guides="1" tooltips="1" connect="1" arrows="1" fold="1" page="1" pageScale="1" pageWidth="1100" pageHeight="850" math="1" shadow="0">
      <root>
        <mxCell id="0" />
        <mxCell id="1" parent="0" />
        <mxCell id="z8s3h_7xRJznRYm4dubG-8" value="" style="pointerEvents=1;verticalLabelPosition=bottom;shadow=0;dashed=0;align=center;html=1;verticalAlign=top;shape=mxgraph.electrical.miscellaneous.batteryStack;fontFamily=Helvetica;fontSize=11;fontColor=default;direction=north;" vertex="1" parent="1">
          <mxGeometry x="260" y="250" width="60" height="40" as="geometry" />
        </mxCell>
        <mxCell id="z8s3h_7xRJznRYm4dubG-9" value="" style="pointerEvents=1;verticalLabelPosition=bottom;shadow=0;dashed=0;align=center;html=1;verticalAlign=top;shape=mxgraph.electrical.resistors.resistor_2;fontFamily=Helvetica;fontSize=11;fontColor=default;" vertex="1" parent="1">
          <mxGeometry x="340" y="190" width="100" height="20" as="geometry" />
        </mxCell>
        <mxCell id="z8s3h_7xRJznRYm4dubG-22" value="" style="edgeStyle=orthogonalEdgeStyle;shape=connector;rounded=0;orthogonalLoop=1;jettySize=auto;html=1;labelBackgroundColor=default;strokeColor=default;align=center;verticalAlign=middle;fontFamily=Helvetica;fontSize=11;fontColor=default;endArrow=none;endFill=0;" edge="1" parent="1" source="z8s3h_7xRJznRYm4dubG-10" target="z8s3h_7xRJznRYm4dubG-21">
          <mxGeometry relative="1" as="geometry" />
        </mxCell>
        <mxCell id="z8s3h_7xRJznRYm4dubG-10" value="" style="pointerEvents=1;verticalLabelPosition=bottom;shadow=0;dashed=0;align=center;html=1;verticalAlign=top;shape=mxgraph.electrical.resistors.resistor_2;fontFamily=Helvetica;fontSize=11;fontColor=default;" vertex="1" parent="1">
          <mxGeometry x="560" y="190" width="100" height="20" as="geometry" />
        </mxCell>
        <mxCell id="z8s3h_7xRJznRYm4dubG-11" value="" style="pointerEvents=1;verticalLabelPosition=bottom;shadow=0;dashed=0;align=center;html=1;verticalAlign=top;shape=mxgraph.electrical.resistors.resistor_2;fontFamily=Helvetica;fontSize=11;fontColor=default;direction=south;" vertex="1" parent="1">
          <mxGeometry x="490" y="250" width="20" height="100" as="geometry" />
        </mxCell>
        <mxCell id="z8s3h_7xRJznRYm4dubG-12" value="$$R_1$$" style="text;html=1;align=center;verticalAlign=middle;resizable=0;points=[];autosize=1;strokeColor=none;fillColor=none;fontSize=22;fontFamily=Times New Roman;fontColor=default;" vertex="1" parent="1">
          <mxGeometry x="340" y="155" width="100" height="40" as="geometry" />
        </mxCell>
        <mxCell id="z8s3h_7xRJznRYm4dubG-13" value="$$R_2$$" style="text;html=1;align=center;verticalAlign=middle;resizable=0;points=[];autosize=1;strokeColor=none;fillColor=none;fontSize=22;fontFamily=Times New Roman;fontColor=default;" vertex="1" parent="1">
          <mxGeometry x="560" y="150" width="100" height="40" as="geometry" />
        </mxCell>
        <mxCell id="z8s3h_7xRJznRYm4dubG-15" value="$$R_3$$" style="text;html=1;align=center;verticalAlign=middle;resizable=0;points=[];autosize=1;strokeColor=none;fillColor=none;fontSize=22;fontFamily=Times New Roman;fontColor=default;" vertex="1" parent="1">
          <mxGeometry x="480" y="280" width="100" height="40" as="geometry" />
        </mxCell>
        <mxCell id="z8s3h_7xRJznRYm4dubG-16" value="" style="shape=waypoint;sketch=0;size=6;pointerEvents=1;points=[];fillColor=none;resizable=0;rotatable=0;perimeter=centerPerimeter;snapToPoint=1;fontFamily=Helvetica;fontSize=11;fontColor=default;" vertex="1" parent="1">
          <mxGeometry x="490" y="190" width="20" height="20" as="geometry" />
        </mxCell>
        <mxCell id="z8s3h_7xRJznRYm4dubG-18" style="edgeStyle=orthogonalEdgeStyle;shape=connector;rounded=0;orthogonalLoop=1;jettySize=auto;html=1;exitX=1;exitY=0.5;exitDx=0;exitDy=0;exitPerimeter=0;entryX=0.283;entryY=0.592;entryDx=0;entryDy=0;entryPerimeter=0;labelBackgroundColor=default;strokeColor=default;align=center;verticalAlign=middle;fontFamily=Helvetica;fontSize=11;fontColor=default;endArrow=none;endFill=0;" edge="1" parent="1" source="z8s3h_7xRJznRYm4dubG-9" target="z8s3h_7xRJznRYm4dubG-16">
          <mxGeometry relative="1" as="geometry" />
        </mxCell>
        <mxCell id="z8s3h_7xRJznRYm4dubG-19" style="edgeStyle=orthogonalEdgeStyle;shape=connector;rounded=0;orthogonalLoop=1;jettySize=auto;html=1;exitX=0;exitY=0.5;exitDx=0;exitDy=0;exitPerimeter=0;entryX=0.983;entryY=0.658;entryDx=0;entryDy=0;entryPerimeter=0;labelBackgroundColor=default;strokeColor=default;align=center;verticalAlign=middle;fontFamily=Helvetica;fontSize=11;fontColor=default;endArrow=none;endFill=0;" edge="1" parent="1" source="z8s3h_7xRJznRYm4dubG-10" target="z8s3h_7xRJznRYm4dubG-16">
          <mxGeometry relative="1" as="geometry" />
        </mxCell>
        <mxCell id="z8s3h_7xRJznRYm4dubG-20" style="edgeStyle=orthogonalEdgeStyle;shape=connector;rounded=0;orthogonalLoop=1;jettySize=auto;html=1;exitX=0;exitY=0.5;exitDx=0;exitDy=0;exitPerimeter=0;entryX=0.45;entryY=0.792;entryDx=0;entryDy=0;entryPerimeter=0;labelBackgroundColor=default;strokeColor=default;align=center;verticalAlign=middle;fontFamily=Helvetica;fontSize=11;fontColor=default;endArrow=none;endFill=0;" edge="1" parent="1" source="z8s3h_7xRJznRYm4dubG-11" target="z8s3h_7xRJznRYm4dubG-16">
          <mxGeometry relative="1" as="geometry" />
        </mxCell>
        <mxCell id="z8s3h_7xRJznRYm4dubG-21" value="" style="shape=waypoint;sketch=0;size=6;pointerEvents=1;points=[];fillColor=default;resizable=0;rotatable=0;perimeter=centerPerimeter;snapToPoint=1;fontSize=11;verticalAlign=top;shadow=0;dashed=0;" vertex="1" parent="1">
          <mxGeometry x="690" y="190" width="20" height="20" as="geometry" />
        </mxCell>
        <mxCell id="z8s3h_7xRJznRYm4dubG-23" value="A" style="text;html=1;align=center;verticalAlign=middle;resizable=0;points=[];autosize=1;strokeColor=none;fillColor=none;fontSize=22;fontFamily=Times New Roman;fontColor=default;" vertex="1" parent="1">
          <mxGeometry x="680" y="155" width="40" height="40" as="geometry" />
        </mxCell>
        <mxCell id="z8s3h_7xRJznRYm4dubG-24" style="edgeStyle=orthogonalEdgeStyle;shape=connector;rounded=0;orthogonalLoop=1;jettySize=auto;html=1;exitX=1;exitY=0.5;exitDx=0;exitDy=0;entryX=0;entryY=0.5;entryDx=0;entryDy=0;entryPerimeter=0;labelBackgroundColor=default;strokeColor=default;align=center;verticalAlign=middle;fontFamily=Helvetica;fontSize=11;fontColor=default;endArrow=none;endFill=0;" edge="1" parent="1" source="z8s3h_7xRJznRYm4dubG-8" target="z8s3h_7xRJznRYm4dubG-9">
          <mxGeometry relative="1" as="geometry" />
        </mxCell>
        <mxCell id="z8s3h_7xRJznRYm4dubG-34" value="" style="edgeStyle=orthogonalEdgeStyle;shape=connector;rounded=0;orthogonalLoop=1;jettySize=auto;html=1;labelBackgroundColor=default;strokeColor=default;align=center;verticalAlign=middle;fontFamily=Helvetica;fontSize=11;fontColor=default;endArrow=none;endFill=0;" edge="1" parent="1" source="z8s3h_7xRJznRYm4dubG-29" target="z8s3h_7xRJznRYm4dubG-33">
          <mxGeometry relative="1" as="geometry" />
        </mxCell>
        <mxCell id="z8s3h_7xRJznRYm4dubG-29" value="" style="shape=waypoint;sketch=0;size=6;pointerEvents=1;points=[];fillColor=none;resizable=0;rotatable=0;perimeter=centerPerimeter;snapToPoint=1;fontFamily=Helvetica;fontSize=11;fontColor=default;" vertex="1" parent="1">
          <mxGeometry x="490" y="360" width="20" height="20" as="geometry" />
        </mxCell>
        <mxCell id="z8s3h_7xRJznRYm4dubG-30" style="edgeStyle=orthogonalEdgeStyle;shape=connector;rounded=0;orthogonalLoop=1;jettySize=auto;html=1;exitX=0;exitY=0.5;exitDx=0;exitDy=0;entryX=0.317;entryY=0.592;entryDx=0;entryDy=0;entryPerimeter=0;labelBackgroundColor=default;strokeColor=default;align=center;verticalAlign=middle;fontFamily=Helvetica;fontSize=11;fontColor=default;endArrow=none;endFill=0;" edge="1" parent="1" source="z8s3h_7xRJznRYm4dubG-8" target="z8s3h_7xRJznRYm4dubG-29">
          <mxGeometry relative="1" as="geometry">
            <Array as="points">
              <mxPoint x="290" y="370" />
            </Array>
          </mxGeometry>
        </mxCell>
        <mxCell id="z8s3h_7xRJznRYm4dubG-31" style="edgeStyle=orthogonalEdgeStyle;shape=connector;rounded=0;orthogonalLoop=1;jettySize=auto;html=1;exitX=1;exitY=0.5;exitDx=0;exitDy=0;exitPerimeter=0;entryX=0.55;entryY=0.292;entryDx=0;entryDy=0;entryPerimeter=0;labelBackgroundColor=default;strokeColor=default;align=center;verticalAlign=middle;fontFamily=Helvetica;fontSize=11;fontColor=default;endArrow=none;endFill=0;" edge="1" parent="1" source="z8s3h_7xRJznRYm4dubG-11" target="z8s3h_7xRJznRYm4dubG-29">
          <mxGeometry relative="1" as="geometry" />
        </mxCell>
        <mxCell id="z8s3h_7xRJznRYm4dubG-33" value="" style="shape=waypoint;sketch=0;size=6;pointerEvents=1;points=[];fillColor=none;resizable=0;rotatable=0;perimeter=centerPerimeter;snapToPoint=1;fontFamily=Helvetica;fontSize=11;fontColor=default;" vertex="1" parent="1">
          <mxGeometry x="690" y="360" width="20" height="20" as="geometry" />
        </mxCell>
        <mxCell id="z8s3h_7xRJznRYm4dubG-35" value="B" style="text;html=1;align=center;verticalAlign=middle;resizable=0;points=[];autosize=1;strokeColor=none;fillColor=none;fontSize=22;fontFamily=Times New Roman;fontColor=default;" vertex="1" parent="1">
          <mxGeometry x="680" y="330" width="40" height="40" as="geometry" />
        </mxCell>
        <mxCell id="z8s3h_7xRJznRYm4dubG-36" value="$$V_1$$" style="text;html=1;align=center;verticalAlign=middle;resizable=0;points=[];autosize=1;strokeColor=none;fillColor=none;fontSize=22;fontFamily=Times New Roman;fontColor=default;" vertex="1" parent="1">
          <mxGeometry x="255" y="220" width="110" height="40" as="geometry" />
        </mxCell>
        <mxCell id="z8s3h_7xRJznRYm4dubG-39" value="" style="group" vertex="1" connectable="0" parent="1">
          <mxGeometry x="255" y="230" width="40" height="70" as="geometry" />
        </mxCell>
        <mxCell id="z8s3h_7xRJznRYm4dubG-37" value="+" style="text;html=1;align=center;verticalAlign=middle;resizable=0;points=[];autosize=1;strokeColor=none;fillColor=none;fontSize=22;fontFamily=Times New Roman;fontColor=default;" vertex="1" parent="z8s3h_7xRJznRYm4dubG-39">
          <mxGeometry width="40" height="40" as="geometry" />
        </mxCell>
        <mxCell id="z8s3h_7xRJznRYm4dubG-38" value="_" style="text;html=1;align=center;verticalAlign=middle;resizable=0;points=[];autosize=1;strokeColor=none;fillColor=none;fontSize=22;fontFamily=Times New Roman;fontColor=default;" vertex="1" parent="z8s3h_7xRJznRYm4dubG-39">
          <mxGeometry x="5" y="30" width="30" height="40" as="geometry" />
        </mxCell>
        <mxCell id="z8s3h_7xRJznRYm4dubG-40" value="&lt;font style=&quot;font-size: 22px;&quot; face=&quot;Times New Roman&quot;&gt;Khép kín vòng mạch&lt;/font&gt;" style="text;html=1;strokeColor=none;fillColor=none;align=center;verticalAlign=middle;whiteSpace=wrap;rounded=0;fontSize=11;fontFamily=Helvetica;fontColor=default;" vertex="1" parent="1">
          <mxGeometry x="345" y="270" width="95" height="30" as="geometry" />
        </mxCell>
        <mxCell id="z8s3h_7xRJznRYm4dubG-41" value="&lt;font style=&quot;font-size: 22px;&quot; face=&quot;Times New Roman&quot;&gt;Hở mạch&lt;/font&gt;" style="text;html=1;strokeColor=none;fillColor=none;align=center;verticalAlign=middle;whiteSpace=wrap;rounded=0;fontSize=11;fontFamily=Helvetica;fontColor=default;" vertex="1" parent="1">
          <mxGeometry x="565" y="270" width="95" height="30" as="geometry" />
        </mxCell>
        <mxCell id="z8s3h_7xRJznRYm4dubG-43" value="" style="endArrow=classic;startArrow=classic;html=1;rounded=0;labelBackgroundColor=default;strokeColor=default;align=center;verticalAlign=middle;fontFamily=Helvetica;fontSize=11;fontColor=default;shape=connector;" edge="1" parent="1" source="z8s3h_7xRJznRYm4dubG-35">
          <mxGeometry width="50" height="50" relative="1" as="geometry">
            <mxPoint x="680" y="310" as="sourcePoint" />
            <mxPoint x="700" y="220" as="targetPoint" />
          </mxGeometry>
        </mxCell>
        <mxCell id="z8s3h_7xRJznRYm4dubG-44" value="`V_(AB)`&lt;br&gt;&amp;nbsp;open circut" style="text;html=1;align=center;verticalAlign=middle;resizable=0;points=[];autosize=1;strokeColor=none;fillColor=none;fontSize=22;fontFamily=Times New Roman;fontColor=default;" vertex="1" parent="1">
          <mxGeometry x="690" y="235" width="130" height="70" as="geometry" />
        </mxCell>
      </root>
    </mxGraphModel>
  </diagram>
</mxfile>
